<svg xmlns="http://www.w3.org/2000/svg" viewBox="0 0 884.35 637.85"><defs><style>.cls-1{fill:#343a40;}</style></defs><g id="Layer_2" data-name="Layer 2"><g id="Layer_1-2" data-name="Layer 1"><path class="cls-1" d="M93.06,317.43c-.49,114.72,83.23,210.16,193.07,227.74a41.76,41.76,0,0,1,35.41,41.34l0,9.88a41.69,41.69,0,0,1-48.11,41C118,613.55-.69,479,0,317,.59,179.94,86.59,63.16,207.38,16.93A319.33,319.33,0,0,1,254.1,3c35.56-7.7,72.57,3.77,98.19,29.6L571.71,253.94l-.56,129.89L300.75,111.12a46.65,46.65,0,0,0-47-11.81C161,128.49,93.5,215,93.06,317.43Z"/><path class="cls-1" d="M884.35,320.83c-.59,136.77-86.19,253.29-206.52,299.75a319,319,0,0,1-44.28,13.52A107.77,107.77,0,0,1,533,605L312.65,382.72l.56-129.89L584.5,526.44a46.58,46.58,0,0,0,47.21,11.76c92.2-29.51,159.14-115.73,159.58-217.77.49-114.73-83.23-210.17-193.08-227.74a41.78,41.78,0,0,1-35.4-41.34l0-9.89A41.68,41.68,0,0,1,611,.5C766.34,24.31,885,158.89,884.35,320.83Z"/></g></g></svg>