<svg xmlns="http://www.w3.org/2000/svg" viewBox="0 0 149.7 180.62"><defs><style>.cls-1{fill:#fff;}.cls-2{fill:#ffb429;}.cls-3{fill:#231400;}</style></defs><g id="Layer_2" data-name="Layer 2"><g id="OBJECTS"><path class="cls-1" d="M76.3,180.62c-.66,0-1.34,0-2-.05-17.67-.77-31-6.43-42.1-17.82-11.9-11.94-17.39-28.19-22.24-42.53L8.49,116c-.84-2.43-1.87-4.95-3-7.63C3.32,103,1.05,97.47.28,92.17c-1.61-11,4.1-16.55,7.65-18.87A18.8,18.8,0,0,1,18.31,70c8.6,0,14.44,6.26,17.83,11.06A212.92,212.92,0,0,1,41.84,36C44,27.1,51.62,20.63,60.08,20.63a15.23,15.23,0,0,1,9.42,3.18C73,8.77,80.33,0,89.69,0c3.49,0,8.69,1.32,13.57,7.6,2.7,3.47,4,8.44,3.89,16.48a14.15,14.15,0,0,1,8.21-2.73c2.75,0,8,.94,12.21,7.24,5.66,8.18,4.36,18.87,2.61,27.24a13.61,13.61,0,0,1,5-.94c2.76,0,9.55,1,13.13,10.38,3.85,9.33-.76,21-5.82,32.13l-.77,1.71c-.05.12-.11.25-.17.37-3.76,7.51-11.69,23.81-14.82,31.75l-.34.86c-7.14,18.15-19.09,48.52-50,48.53Z"/><path class="cls-2" d="M68.5,86.5c2.4-1.27,6.57-39.93,8.65-54.51,2.38-16.75,10.32-30,19-18.85C100,18,97.45,36,95.45,48.37c-2.34,14.45-7.57,35.79-5.51,39.92,1.57,3.14,7.79-25.11,10.85-35.63,1.69-6.1,11.19-31.2,19.33-19,4.74,6.79,1.69,18.32,0,25.78-3.39,12.89-7.12,26.28-11.87,39.17,7.85-12.12,25.19-47.31,31.63-30,3.06,7.13-3.73,20.74-6.44,26.85-4.07,8.13-12,24.39-15.14,32.48-7.16,18.16-17.2,44.78-43.63,43.63-14.24-.62-25.89-4.63-36.07-15.14C27.07,144.89,22.21,128.16,17,113,12.73,100.54,4,86.68,12.87,80.85c7.91-5.16,13.76,1.66,18.05,8.78,5.89,9.76,13.47,14.73,13.74,7.74.76-19.16.14-34.63,6-59.27C52.78,29,64.69,25.58,67.1,36.4,70.64,52.27,62.51,89.66,68.5,86.5Z"/><path class="cls-3" d="M72.36,87.36a3.67,3.67,0,0,0,1.28-2.18,37.93,37.93,0,0,0,1-4c.87-4.27,1.5-8.6,2.12-12.92,1.47-10.25,2.69-20.53,4-30.8.73-5.64,1.51-11.27,3.4-16.66a26.25,26.25,0,0,1,4-7.84C89.37,11.53,91,10,93,10c2.27,0,4.12,1.82,5.46,3.46a10.07,10.07,0,0,1,1.76,5.36c.67,6-.06,12.25-.81,18.24-1.58,12.77-4.5,25.29-6.54,38-.41,2.58-.8,5.17-1,7.77A15.27,15.27,0,0,0,92.13,88c.31,1.11,1.33,2.13,2.42,1.11a7.85,7.85,0,0,0,1.51-3c1.48-4,2.51-8.14,3.59-12.24C101,69,102.18,64,103.47,59c2-7.61,4.31-15.19,8.57-21.87a19.47,19.47,0,0,1,3.61-4.38,7.51,7.51,0,0,1,1.75-1.11,3.39,3.39,0,0,1,1.72-.25c1.64.27,2.86,1.78,3.78,3.22A16.12,16.12,0,0,1,125,43.16c.07,6.47-1.69,13-3.34,19.18-2.17,8.15-4.44,16.27-7,24.3q-1.89,5.89-4,11.71c-.41,1.11,1.24,1.68,1.83.77,3.56-5.51,6.69-11.29,10.16-16.85,1.89-3,3.85-6,6-8.92a36.44,36.44,0,0,1,5.88-6.52,11,11,0,0,1,1.29-1c.21-.12.41-.25.62-.36s.52-.25.55-.26a4.7,4.7,0,0,1,.63-.22l.29-.07c.17,0,.28,0,.19,0a4,4,0,0,1,.6,0h.18l.21,0c.12,0,.57.19.4.12a4,4,0,0,1,.57.32c.14.09.11.07.11.08a3.22,3.22,0,0,1,.28.24,5.8,5.8,0,0,1,.52.58,11.68,11.68,0,0,1,1.63,3.32c1.17,3.71.06,8-1.05,11.57a97.27,97.27,0,0,1-4.66,11.7c-1.56,3.44-3.29,6.8-4.94,10.2-2,4.23-4.08,8.47-6,12.74-1.73,3.74-3.44,7.49-5,11.32-1.32,3.28-2.58,6.58-4,9.83-3,7-6.36,14-11.08,19.95s-10.7,10.71-18.08,12.64a38.12,38.12,0,0,1-13.13.76,56.81,56.81,0,0,1-14.19-3,49.36,49.36,0,0,1-23.06-17.92c-6.08-8.46-9.78-18.33-13.13-28.12-1.7-4.94-3.3-9.9-5.27-14.74-1.89-4.63-4-9.27-5.12-14.17-.81-3.61-.92-7.78,2.26-10.3a8.93,8.93,0,0,1,6.31-2.06,9.85,9.85,0,0,1,5.43,2.81c3.84,3.54,5.94,8.44,9.19,12.46A25.86,25.86,0,0,0,41.77,100a6.85,6.85,0,0,0,4.11,1.65,3.12,3.12,0,0,0,2.82-2.29A9.46,9.46,0,0,0,49,96.66c.05-1.18.09-2.36.13-3.54.15-4.68.25-9.36.43-14a213.24,213.24,0,0,1,3.08-29.93c.55-3,1.16-6,1.84-9a15.22,15.22,0,0,1,2.13-5.64c1.63-2.34,4.52-4.21,7.47-3.87,3.34.39,4.89,3.57,5.48,6.52a50.9,50.9,0,0,1,.78,9.71c.05,7.69-.67,15.36-1.24,23-.25,3.22-.49,6.44-.55,9.67a18.86,18.86,0,0,0,.51,6.18c.51,1.49,1.74,2.36,3.26,1.58,1.15-.59.14-2.31-1-1.73-.23.12.11,0,0,0l-.15,0c-.19,0,.22,0,0,0s0,0,0,0c-.2-.14.18.07,0,0,0,0,.1.17,0,0s-.19-.23-.06-.06-.09-.17-.13-.24,0,0,0,0a2.77,2.77,0,0,1-.1-.26A9.52,9.52,0,0,1,70.75,84s0-.2,0-.44,0-.57-.07-.85c0-.58,0-1.17,0-1.75,0-1.42,0-2.83.11-4.24.37-7.59,1.19-15.14,1.53-22.72a106.49,106.49,0,0,0,0-11.3c-.2-3.35-.45-7.15-2.19-10.1a7.74,7.74,0,0,0-8.14-3.79,11.36,11.36,0,0,0-7.75,6,26.87,26.87,0,0,0-2,7q-1,4.44-1.74,8.92-1.34,7.86-2,15.81c-.83,9.56-.93,19.16-1.26,28.74a17.16,17.16,0,0,1-.2,3.13,3,3,0,0,1-.24.71s-.22.34-.14.23a.93.93,0,0,1-.14.14c-.13.12,0,0-.06,0a1.21,1.21,0,0,1-1,.09,6.18,6.18,0,0,1-1.94-.92C39.23,96,36.7,91.47,34.09,87.44c-2.46-3.79-5.79-8.18-10.49-9.18a10.61,10.61,0,0,0-11.21,5.37c-1.86,3.84-.86,8.42.36,12.3,1.58,5.07,3.87,9.88,5.75,14.84s3.4,10,5.17,15a137.72,137.72,0,0,0,6.14,14.88c4.63,9.36,11.19,17.81,20,23.64,8.32,5.52,18.12,7.83,28,8.29a34.51,34.51,0,0,0,12.64-1.67,33.46,33.46,0,0,0,10.12-5.64c6.1-4.91,10.54-11.64,14.09-18.53,3.42-6.66,5.95-13.67,8.83-20.56C127,117.7,131,109.45,135,101.23c3.57-7.27,7.43-14.69,9.25-22.63a24.21,24.21,0,0,0,.71-6.17,13.5,13.5,0,0,0-1.25-5.19c-.89-2-2.41-4-4.78-4.3-2.18-.23-4.2,1.08-5.81,2.4a37.84,37.84,0,0,0-6.08,6.74,200.48,200.48,0,0,0-11.85,18.61c-1.46,2.49-2.92,5-4.49,7.42l1.83.77c3-8.07,5.53-16.28,7.88-24.54,2-7.17,4.13-14.37,5.54-21.7,1.15-6,2.11-13.23-1.2-18.77a9.25,9.25,0,0,0-4.46-4.23,5.51,5.51,0,0,0-4.57.59,14.23,14.23,0,0,0-4.06,3.9,38.65,38.65,0,0,0-3.46,5.63A72.93,72.93,0,0,0,103.59,51c-1.23,3.85-2.16,7.8-3.15,11.71-1.29,5-2.55,10.11-3.93,15.13-.56,2-1.14,4.08-1.8,6.09a20.64,20.64,0,0,1-1.4,3.49,1.7,1.7,0,0,1-.15.22c.19-.28.06-.08,0,0s.22-.1,0,0a.91.91,0,0,1,.57-.08c.35.12.24.2.44.33-.08-.06-.1-.26,0,0-.08-.29-.18-.57-.24-.87a21.8,21.8,0,0,1,.1-5.45c.59-6,1.82-11.91,2.95-17.81,1.22-6.33,2.43-12.66,3.41-19a155.2,155.2,0,0,0,2.06-19.82,38.34,38.34,0,0,0-.49-8A10.66,10.66,0,0,0,99,11.08C97.45,9.41,95.31,8,92.9,8a8.14,8.14,0,0,0-5.57,2.92A24.45,24.45,0,0,0,83,18.31,53.36,53.36,0,0,0,80,28.68c-.88,4.67-1.37,9.43-2,14.14-.68,5.31-1.34,10.62-2,15.93-.67,5.08-1.36,10.17-2.17,15.23a80.35,80.35,0,0,1-2.05,10.31c-.07.23-.14.46-.22.69s-.07.19-.11.29c-.09.26.09-.16,0,.07s-.14.25-.2.38.19-.18,0,0,.23-.14.08-.06A1,1,0,0,0,72.36,87.36Z"/><path class="cls-3" d="M59.94,17.52C50.68,17.76,45.61,28,43.32,35.69A39.67,39.67,0,0,0,42,42.08a1.5,1.5,0,0,0,1.5,1.5,1.54,1.54,0,0,0,1.5-1.5c0-.37-.06.35,0,0l0-.22.09-.57c.08-.44.16-.88.25-1.32.19-.91.41-1.81.66-2.71s.56-1.88.88-2.81c.17-.47.34-.93.52-1.39s.32-.8.52-1.24A31.29,31.29,0,0,1,51,26.27l.43-.6s.18-.22,0,0l.27-.34c.3-.37.61-.73.94-1.08s.65-.66,1-1l.52-.45.12-.1a3.43,3.43,0,0,1,.33-.24A12,12,0,0,1,56,21.58l.65-.32c.06,0,.33-.15.06,0l.37-.14a11,11,0,0,1,1.52-.43l.27,0,.26,0c-.18,0-.18,0,0,0l.82-.05c1.93-.05,1.93-3.05,0-3Z"/><path class="cls-3" d="M48.14,16.56c-6.26,4-9.87,11.1-11.55,18.15-.44,1.87,2.45,2.67,2.9.79C41,29.24,44.07,22.72,49.65,19.15a1.53,1.53,0,0,0,.54-2,1.51,1.51,0,0,0-2-.54Z"/></g></g></svg>