<svg xmlns="http://www.w3.org/2000/svg" xmlns:xlink="http://www.w3.org/1999/xlink" viewBox="0 0 169.96 152.31"><defs><style>.cls-1{fill:url(#linear-gradient);}</style><linearGradient id="linear-gradient" y1="76.16" x2="169.96" y2="76.16" gradientUnits="userSpaceOnUse"><stop offset="0" stop-color="#10e234"/><stop offset="0" stop-color="#00f8ff"/><stop offset="1" stop-color="#0093e5"/></linearGradient></defs><g id="Layer_2" data-name="Layer 2"><g id="Layer_1-2" data-name="Layer 1"><path class="cls-1" d="M122,55.71A141.51,141.51,0,0,0,66.16,25.77L73.13,0,0,19.79,51,51,47.11,65.53l7.72,2.09,3.32-12.29,9.42,5.76,4.17-6.83-11.41-7,3.74-13.8a133.39,133.39,0,0,1,52.64,28.24c36.61,32.12,43.86,74.05,45.27,90.58l8-.68C168.46,134.13,160.78,89.75,122,55.71ZM53.22,42.94,20,22.66l41.74-11.3L58.39,23.84a143.25,143.25,0,0,0-19-2.88l-.65,8A134.84,134.84,0,0,1,56.3,31.57Z"/></g></g></svg>