<svg id="Layer_1" data-name="Layer 1" xmlns="http://www.w3.org/2000/svg" viewBox="0 0 500 500"><defs><style>.cls-1{fill:#393939;}</style></defs><path class="cls-1" d="M98,55.52H400.68a10.07,10.07,0,0,0,1.9,1c24.52,6.49,38.55,24.94,38.31,50.26-.09,9.08-.32,18.18.08,27.24,1,23.22,3.41,46.24,12.4,68,5.81,14.06,14,26.1,28.66,32.37,4,1.73,10.05,2.12,11.82,5.1,2.11,3.58.65,9.27.74,14.05a22.74,22.74,0,0,0,0,2.86c.61,4.13-1.19,6-5.27,6.72-9.3,1.59-17.86,5.86-22.93,13.49-6.66,10-12.85,20.78-16.67,32.09-8.83,26.12-10.2,53.53-8.65,80.79,1.66,29-19.22,55.36-53.75,55-92.49-1-185-.31-277.48-.32-31.92,0-52.62-22.62-51.38-54.77,1.1-28.26-.5-56.43-9.41-83.6-7.19-21.91-18.5-40-44.06-43.93V238.68c6.51-2.66,13.07-4.46,18.71-7.81,12.76-7.6,19.34-20.08,24.16-33.59,10-28.18,11-57.49,10.86-87,0-5.93,0-12.06,1.45-17.74C65.15,72.65,78.73,61.08,98,55.52Zm79.19,90.09v211c1.72.19,2.88.44,4,.44,28.68,0,57.41.85,86-.4A98.17,98.17,0,0,0,303.73,348c34-15.88,41.32-64.77,13.74-89.28-7.18-6.37-16.81-10-23.39-13.79,6.15-5.51,15.16-11.1,20.76-19.09,21.72-31,2.53-72.86-36.31-78.23-19-2.63-38.59-1.58-57.91-1.91C206.32,145.41,192,145.61,177.18,145.61Z"/><path class="cls-1" d="M211.61,261c20,.81,39.61.2,58.83,2.76,19.66,2.62,28.81,14.82,28.32,32.5-.47,16.95-11.28,29.51-30.32,31.12-18.66,1.58-37.56.34-56.83.34Z"/><path class="cls-1" d="M211.49,234.46V175c17.91,0,35.55-1.08,53,.33,14.38,1.17,23.24,11.45,24.33,24,1.39,15.91-5.36,26.9-20.18,32.15a43.72,43.72,0,0,1-13.21,2.85C241,234.68,226.46,234.46,211.49,234.46Z"/></svg>