<svg id="Layer_1" data-name="Layer 1" xmlns="http://www.w3.org/2000/svg" viewBox="0 0 500 500"><defs><style>.cls-1{fill:#393939;}</style></defs><path class="cls-1" d="M31.07-.2H468.93q-3.14,35.5-6.27,71-4.67,52.52-9.35,105-4.15,46.68-8.26,93.37-4.65,52.52-9.34,105c-2.14,24-4.31,48-6.34,72-.26,3-1.39,4.35-4.41,5.19q-68.38,18.9-136.68,38.1c-12.15,3.41-24.22,7.12-36.33,10.69h-3.9a51.63,51.63,0,0,0-4.87-1.9q-84-23.52-168.14-46.91c-3-.82-4.34-2.06-4.5-5.16-.26-5-.86-10.05-1.3-15.07q-4.58-52.29-9.17-104.57-4.65-52.51-9.38-105Q46.06,169.29,41.51,117,36.34,58.4,31.07-.2Zm97.81,284.67c0,2.6-.16,4.72,0,6.81,2.28,26.09,4.68,52.16,6.84,78.25.3,3.61,2.25,4.48,5.11,5.27,35.18,9.67,70.33,19.44,105.52,29.06A13.2,13.2,0,0,0,253,404c35.65-9.77,71.25-19.73,106.9-29.48,2.92-.8,4-2.15,4.22-4.91q1.53-18.74,3.19-37.44,2.54-28.9,5.11-57.82c1.85-20.57,3.77-41.13,5.61-61.7,1.43-15.87,2.75-31.76,4.19-47.63q3.18-35.22,6.43-70.44a12.22,12.22,0,0,0-.32-2.64H111.15c1.21,17.59,2.4,34.86,3.57,52H328.61c-1.37,18.54-2.72,36.78-4.09,55.33l-204.34,2.45c1.93,18.19,3.75,35.44,5.57,52.62H319.68c-.43,4.19-.82,8.2-1.26,12.2-2.23,20.19-4.53,40.37-6.66,60.58-.27,2.57-1.24,3.46-3.7,4.11-18.51,4.86-36.95,10-55.45,14.85A11.54,11.54,0,0,1,247,346q-23.3-6.09-46.52-12.45c-12.38-3.36-12.19-3.41-13.07-16.09-.76-11-2-21.91-3.05-33Z"/></svg>