<svg id="Layer_1" data-name="Layer 1" xmlns="http://www.w3.org/2000/svg" viewBox="0 0 500 500"><defs><style>.cls-1{fill:#393939;}</style></defs><path class="cls-1" d="M500,270.42c-1.27,9.31-2,18.73-3.89,27.92C478.26,387,426.6,448,343.85,483.21a143.15,143.15,0,0,1-14.68,5.25c-10.64,3.22-17.83-2.07-17.83-13,0-19.7,0-39.4.23-59.09.26-19-2-37-16-51.4,11.38-2.28,22.61-4,33.54-6.84,25-6.52,46.43-18.63,61-40.78,11.68-17.75,16.4-37.72,18-58.56,1.38-18,1.18-36-6.71-52.66-4.34-9.16-10.6-17.4-15.82-26.17-.94-1.57-1.86-3.91-1.38-5.47,6-19.43,4.3-38.48-1.76-57.57-1.51-4.77-4.44-5.91-8.26-5.11-9.18,1.91-18.68,3.32-27.24,6.87-10.89,4.53-20.92,11.09-31.45,16.5a11.17,11.17,0,0,1-7.13,1.21,242.8,242.8,0,0,0-117.38,0,11,11,0,0,1-7.52-1.44c-15.58-9.55-31.43-18.4-49.59-22.16-14.33-3-16.07-1.9-19.64,12.26-4.23,16.75-4.64,33.42,1,50a5,5,0,0,1-.86,4.16c-21.24,23.91-26.19,52.22-23,82.93,2,19.5,6.63,38.13,17.44,54.75,14.53,22.37,36,34.73,61.16,41.36,10.82,2.85,21.93,4.58,33.13,6.86a5.8,5.8,0,0,1-.84,1.5C195.22,374,191.21,383,189.49,393c-.61,3.56-2.21,5.29-5.51,6.4-18.42,6.22-36.61,7.63-52.87-5.06-6.13-4.78-11-11.42-15.6-17.85C106.59,363.87,95.88,354.3,80,352.12a22.66,22.66,0,0,0-8.17.33c-2,.46-4.85,1.81-5.22,3.3s1.32,4.07,2.66,5.72a20.11,20.11,0,0,0,5.26,4.3c13,7.72,21.92,19.17,27.06,33C113.35,430.26,142,440.6,171,438c5.33-.47,10.62-1.38,16.27-2.13.12,1.21.35,2.44.36,3.67.15,11.72.3,23.44.36,35.15.07,12.05-7.58,17.82-18.94,13.69-85.63-31.15-140.72-90.3-163-179.08C3.29,298.17,2.54,286.53.83,275.12.6,273.55.28,272,0,270.42V240.14c1.36-9.63,2.34-19.34,4.14-28.88C25.08,100.35,120.25,17.49,234.4,10.78,294,7.28,348.62,22.43,397.09,57.49c53.64,38.8,87,90.89,99.08,156.22,1.68,9.06,2.57,18.27,3.83,27.41Z"/></svg>