<svg id="Layer_1" data-name="Layer 1" xmlns="http://www.w3.org/2000/svg" viewBox="0 0 500 500"><defs><style>.cls-1{fill:#393939;}</style></defs><path class="cls-1" d="M500,73.36V426.64a12.48,12.48,0,0,0-.24,1.36,74.53,74.53,0,0,1-10,32.45C477.36,481.6,459,494.5,434.85,498.9c-2.72.49-5.48.74-8.22,1.1H73.38c-3.3-.46-6.61-.8-9.89-1.4C27.2,492,0,459.48,0,422.5Q0,250,.08,77.56a76.13,76.13,0,0,1,1.5-14.83A77.94,77.94,0,0,1,78.43,0H421.79a75.12,75.12,0,0,1,38.65,10.21c21.17,12.4,34.05,30.74,38.44,54.94C499.38,67.87,499.63,70.63,500,73.36ZM204.8,143.94H188.86c-3.43,0-6.87,0-10.3,0-1.63,0-2.54.75-2.51,2.2.17,6.54-1.4,12.76-3.51,18.86q-15.18,43.89-30.39,87.75-13.8,39.81-27.59,79.63-3.74,10.77-7.44,21.55c-1.16,3.37-.39,4.46,3.1,4.46h37.24c2.65,0,3.9-.91,4.65-3.39q7.5-24.56,15-49.13a1.68,1.68,0,0,1,1.93-1.46q36.67.06,73.35,0a1.51,1.51,0,0,1,1.75,1.26q8.08,25,16.27,50c.65,2,1.52,2.67,3.59,2.67h42.46c2.39,0,3.11-1,2.47-3.31-.09-.32-.2-.63-.31-.94q-7.94-22-15.86-44.09-29.34-81.7-58.69-163.4c-.91-2.54-1.15-2.71-3.86-2.71ZM332.07,279.45q0,37.67,0,75.33c0,2.8.81,3.59,3.6,3.59h19c5.79,0,11.57,0,17.35,0,1.33,0,2.32-.42,2.66-1.78a8.59,8.59,0,0,0,.24-2.09q0-75,0-149.93c0-2.93-.73-3.64-3.68-3.64H335.74a10.77,10.77,0,0,0-1.27,0,2.36,2.36,0,0,0-2.37,2.46c0,.61,0,1.22,0,1.83Zm-3.8-126.85c-.08,10.65,5.07,19.39,13.87,23.69,4.46,2.18,9.2,2.6,14,2.27,7.62-.52,13.91-3.66,18.53-9.85,4.76-6.39,5.71-13.67,4.62-21.31a23.14,23.14,0,0,0-7.79-14.61c-6.67-5.79-14.56-6.87-22.9-5.41A24.57,24.57,0,0,0,328.27,152.6Z"/><path class="cls-1" d="M205.15,180c8.08,30.45,17.58,60.15,29.82,89.12H179.45C187,239.22,197.88,210.3,205.15,180Z"/></svg>