<svg id="Layer_1" data-name="Layer 1" xmlns="http://www.w3.org/2000/svg" viewBox="0 0 500 500"><defs><style>.cls-1{fill:#393939;}</style></defs><path class="cls-1" d="M500,235.35v29.3a24.71,24.71,0,0,0-.84,3.75c-2.81,39.09-13.92,75.68-34.36,109.09C425.13,442.31,367.87,482.09,293,496.1c-9.37,1.76-18.92,2.62-28.38,3.9h-29.3a25.72,25.72,0,0,0-3.73-.84c-50.34-3.78-95.61-21-135.21-52.22C46.13,407.28,15.07,355.78,3.84,292.58,2.19,283.33,1.26,274,0,264.65v-29.3c.75-6.27,1.4-12.55,2.28-18.81,7-50.12,27-94.4,60.75-132.17,38.77-43.44,86.91-70.51,144.41-80.5,9.25-1.61,18.61-2.6,27.91-3.87h29.3a24.82,24.82,0,0,0,3.74.83C306.3,3.51,341.91,14,374.54,33.44c66.62,39.64,107.43,97.6,121.6,174C497.85,216.66,498.73,226,500,235.35ZM132.59,146.82l-.76-.53c-6.73,8.72-14.07,17-20.07,26.22-20.28,31-22.27,64.76-13.53,99.74,18.39,73.59,97.6,144.39,196.33,126.27,45.66-8.38,79.18-33.56,101.05-74.38a46.28,46.28,0,0,0,1.95-4.77l-1.21-.68c-.68.89-1.33,1.82-2.06,2.67a109.08,109.08,0,0,1-39.83,29.1c-32.76,14.14-66.78,15.67-100.75,6.85-50.82-13.19-89.44-43.24-114.26-89.74-16.18-30.33-21.82-62.73-14.19-96.72C127.09,162.7,130.11,154.82,132.59,146.82Zm272,93.85c-.82.78-1.72,1.49-2.46,2.34-23.25,27.05-53.42,36.18-87.67,32-36.48-4.48-66-22.41-87.57-52-22.08-30.32-29.64-63.52-15.47-99.77a14.08,14.08,0,0,0,.46-2.71A107.73,107.73,0,0,0,200,135.24a85.69,85.69,0,0,0-15.67,45.91c-1.49,28.92,8.11,54.22,26.32,76,24.65,29.48,55.86,46.69,95.25,46.4,26.56-.2,51.16-6.47,71.92-24C390.21,269.05,399.52,256.4,404.64,240.67ZM394.29,186c-7.34,6.11-15.08,11.22-24.56,13.2-30.3,6.33-64.53-7.7-82.2-34-12.3-18.34-17.33-38-9.4-59.59a7.71,7.71,0,0,0,0-2.1,14.51,14.51,0,0,0-1.91,1.48c-12.31,14.48-17.41,31.25-14,49.89,6,32.84,33.92,58.78,67.38,62.72,17.19,2,33.85-.1,48.15-11.16C384.84,200.91,390.88,194.5,394.29,186Z"/></svg>