<svg id="Layer_1" data-name="Layer 1" xmlns="http://www.w3.org/2000/svg" viewBox="0 0 500 500"><defs><style>.cls-1{fill:#393939;}</style></defs><path class="cls-1" d="M0,0H500V500c-2.11,0-4.23-.08-6.34-.08H.08V493q0-243.33,0-486.65C.07,4.23,0,2.12,0,0ZM447.61,264.65c-10.75-19.24-25.79-31.93-47.19-36.13a92.37,92.37,0,0,0-36.85-.2c-24.69,5.13-43,18.36-49.52,43.43-6.71,25.92-1.34,49.39,19.42,67.89,10.46,9.32,23,15.14,35.64,20.82,10.8,4.86,21.59,9.79,32.14,15.17a22.11,22.11,0,0,1,11.59,13.26c3.81,12.31-2.64,23.44-16.11,27.87-21,6.91-43.23-1.13-56.83-20.53-1.35-1.92-2.74-3.82-4.17-5.8l-37.85,22c3.76,10.61,15.5,24.48,27.72,32.41,25.32,16.45,53.06,19.34,82,13.54,19.23-3.85,35.37-13.06,45.58-30.53,17.74-30.39,8.06-70.53-22.85-89.79-14.93-9.3-31.64-15.71-47.38-23.74-6.46-3.3-13.32-6.55-18.56-11.37-11.72-10.79-6.38-30.36,9-33.91,12.12-2.8,23,0,31.11,10.13,2.22,2.76,4.15,5.74,6.47,9Zm-222.44-35.1v6.8q0,74.67,0,149.36a93,93,0,0,1-.78,13.14c-1.25,8.72-4.91,15.83-14.15,18.56-13.09,3.87-24.64,0-32.68-11.05-2.74-3.77-5.17-7.76-7.84-11.81l-38.26,23.21c7.11,14.89,16.91,26.61,31.16,33.87,24,12.21,48.79,12.45,73.61,2.87,14.86-5.74,24.82-16.86,30.67-31.64,4.13-10.42,5.62-21.33,5.63-32.46q0-78.09,0-156.2c0-1.55-.13-3.1-.2-4.65Z"/></svg>