<svg id="Layer_1" data-name="Layer 1" xmlns="http://www.w3.org/2000/svg" viewBox="0 0 500 500"><defs><style>.cls-1{fill:#393939;}</style></defs><path class="cls-1" d="M500,257.76a92.91,92.91,0,0,1-17.33,40.39c-13.44,17.74-30.73,30.85-49.89,41.62-32.7,18.37-68.07,29-104.81,35.35A456.3,456.3,0,0,1,200.1,379C153,373.87,107.67,362.58,66,339c-18.56-10.49-35.36-23.23-48.34-40.46-24.64-32.74-23.48-69.92,3-101.21,19.65-23.21,44.91-38.34,72.43-50,44.75-18.9,91.76-27.13,140.08-28.85,50-1.77,99.06,3.59,146.81,18.87,32.33,10.35,62.7,24.59,87.91,48,16.09,15,28.11,32.44,31.36,54.87a8.44,8.44,0,0,0,.69,1.8ZM209.18,213.44c-3.28-5-5.83-10.23-9.64-14.32-9.71-10.43-22.86-13.22-36.28-13.62-18.87-.56-37.76-.14-56.64-.14-6.24,0-7.75,1.12-8.9,6.95C94.1,210.78,90.46,229.24,87,247.74,82.28,272.35,77.74,297,73.09,321.6c-1.12,5.95.71,8.5,6.63,8.54,8.62.06,17.25-.11,25.88.07,4.86.1,7.61-2.18,8.51-6.71,1.86-9.37,3.56-18.78,5.3-28.08,11.29-.49,22.43-.87,33.55-1.5,12.62-.72,24.07-4.64,33.6-13.26,3.87-3.49,7.56-7.19,11.87-11.3-1,4.88-2.37,9-2.73,13.23-.89,10.21-2,12.71,9.55,12.38,7.8-.23,15.62-.13,23.43,0,3.72.06,6-1.06,6.79-5.09,2.11-11.28,4.47-22.5,6.7-33.75,2.41-12.14,4.78-24.29,7.18-36.53,7.77,0,15.09-.09,22.4,0,4.42.08,6.26,2.2,5.52,5.93-3.85,19.23-8.26,38.37-11.33,57.72-1.38,8.71-2.48,12,9.33,11.7,8.75-.22,17.51,0,26.43,0a18,18,0,0,1,0,2.91c-1.56,7.65-3.29,15.27-4.72,23-1.21,6.51,1.33,9.34,8,9.36,8.62,0,17.25,0,25.88,0,4,0,6.27-1.81,7-5.75,1.58-8.46,3.39-16.88,4.8-25.37.53-3.22,1.85-4.1,5-4.22,12.25-.42,24.65-.14,36.67-2.1,21.15-3.45,35.89-16.29,44.14-35.88a82,82,0,0,0,5.73-23.53c1.21-12.25-1.32-23.76-10-33.49-9.34-10.46-21.69-13.71-34.52-14.25-20.31-.84-40.69-.36-61,0-2.17,0-5.53,2.52-6.2,4.57-1.78,5.44-2.39,11.26-3.51,17.16-.5-.62-.92-.93-1.07-1.35-3.51-10-10.61-16-20.84-17.59-9.32-1.47-18.76-2.16-28.17-2.93-4.27-.35-8.58-.06-12.78-.06,1.64-9.32,3.08-18,4.7-26.59,1.13-6-.62-8.58-6.48-8.63-8.79-.07-17.58.08-26.37-.06-4.7-.07-7.23,2.33-8.08,6.6-1.8,9.08-3.36,18.21-5.08,27.31C213,194,211,204,209.18,213.44Z"/><path class="cls-1" d="M125.64,261.76c2.18-11.13,4.13-21.75,6.37-32.32,2.34-11,2.47-11.15,13.94-10.9a139,139,0,0,1,15.32,1.66c4.42.6,6.58,3.89,6.7,7.76.31,10.09-1.77,19.58-9.1,27.22-5,5.24-11.78,5.72-18.28,6.47C135.82,262.2,130.93,261.76,125.64,261.76Z"/><path class="cls-1" d="M349.69,262.37c3-15.34,5.7-29.5,8.57-44.31,8.52.45,16.61.52,24.61,1.4,6.62.72,9.46,4.21,9,10.89a67.86,67.86,0,0,1-2.92,15.6c-2.59,8.17-8.48,13.34-17,14.56C364.93,261.52,357.84,261.73,349.69,262.37Z"/></svg>