<svg id="Layer_1" data-name="Layer 1" xmlns="http://www.w3.org/2000/svg" viewBox="0 0 500 500"><defs><style>.cls-1{fill:#393939;}</style></defs><path class="cls-1" d="M266.76-2.8c9.8,1,19.59,2,29.39,3,20,2,38.81,7.15,54.07,21.25,12.7,11.74,19.84,26.14,19.92,43.55.15,38.18.28,76.37,0,114.54-.28,35.28-27.06,61.43-62.36,61.47q-58.26,0-116.52,0c-43.46,0-77.3,33.82-77.37,77.23q0,23.44,0,46.9v5.48c-16.15,0-31.75.29-47.34-.16A49.6,49.6,0,0,1,50.75,367C32,359.87,20.6,345.34,14.17,327.24,0,287.43-4.32,246.59,4.75,204.94c2.55-11.67,5-23.66,9.86-34.47,12.48-27.87,34.87-43.3,65.39-43.8,54.3-.89,108.61-.38,162.92-.45,2.1,0,4.2,0,6.58,0V110.88H129.21c0-3.52,0-6.43,0-9.34.08-15.14-.16-30.29.33-45.42.82-25.7,11.72-39.94,36.26-48,18.72-6.16,38.12-8.52,57.68-9.94,2.26-.17,4.5-.63,6.74-1Zm-84.8,83A23,23,0,0,0,204.5,57c-.14-12.61-10.56-23-22.95-22.9S159,44.67,159.07,57.38A22.82,22.82,0,0,0,182,80.19Z"/><path class="cls-1" d="M369.39,386.24c0,19,1.08,37.35-.33,55.46-1.19,15.41-11.05,26.71-23.49,35.52-16.33,11.57-35.1,16.9-54.3,21-40.25,8.66-79.46,4.81-117.6-10.33a83.55,83.55,0,0,1-28.83-18.6c-10.2-10.26-15.76-22.47-15.73-37.1.06-38.34-.14-76.68.19-115,.3-34.44,27.51-61,61.91-61,38.18,0,76.38-.84,114.53.18,43.94,1.17,80.78-36,79.63-79.55-.44-16.58-.07-33.18-.07-49.52.62-.45.87-.8,1.12-.8,17.44,0,34.94-.79,52.29.44,17.7,1.25,30.19,11.88,39.08,26.84,8.18,13.77,12.14,29,15.53,44.47,5.44,24.71,8.49,49.62,5.52,74.92A189.68,189.68,0,0,1,475.69,345c-10.21,18.11-26.16,26.24-47,26.15-57.27-.24-114.54-.08-171.81-.08h-6.77v15.2ZM340,440.12A22.7,22.7,0,0,0,317.48,417a23,23,0,0,0-.34,46C329.54,463.25,339.89,452.88,340,440.12Z"/></svg>